<?xml version="1.0" encoding="utf-8"?>
<!-- Generator: Adobe Illustrator 15.1.0, SVG Export Plug-In . SVG Version: 6.00 Build 0)  -->
<!DOCTYPE svg PUBLIC "-//W3C//DTD SVG 1.1//EN" "http://www.w3.org/Graphics/SVG/1.1/DTD/svg11.dtd">
<svg version="1.1" id="Layer_1" xmlns="http://www.w3.org/2000/svg" xmlns:xlink="http://www.w3.org/1999/xlink" x="0px" y="0px"
	 width="20px" height="20px" viewBox="0 0 20 20" enable-background="new 0 0 20 20" xml:space="preserve">
<g id="Layer_1_2_">
	<g id="Layer_1_1_">
		<g id="Layer_2">
			<path fill="#1E1E1E" d="M19.993,18.762c0,0.625-0.603,1.23-1.229,1.23H1.157c-0.627,0-1.149-0.605-1.149-1.457V0.932
				c0-0.405,0.522-0.924,1.149-0.924h17.606c0.629,0,1.229,0.519,1.229,1.145L19.993,18.762L19.993,18.762z"/>
		</g>
	</g>
	<g id="Layer_1_copy" display="none">
	</g>
</g>
<g id="Layer_2_1_">
	<path fill="#FFFFFF" d="M9.886,3.563c0,0-0.315-0.229-0.95-0.374c-0.634-0.145-5.171,0.118-5.32,0.188
		c-0.148,0.067-0.33,0.278-0.361,0.442C3.222,3.983,2.529,15.156,2.67,15.452c0.141,0.289,0.207,0.508,0.427,0.58
		c0.22,0.074,6.326-0.291,6.719,0.199"/>
	<path fill="#FFFFFF" d="M10.208,3.481c0,0,0.327-0.223,0.98-0.353c0.657-0.132,5.311,0.237,5.465,0.308
		c0.15,0.073,0.333,0.287,0.364,0.45c0.027,0.165,0.556,11.354,0.405,11.641c-0.149,0.291-0.222,0.506-0.447,0.576
		c-0.227,0.064-6.493-0.436-6.906,0.042"/>
	<path fill="#FFFFFF" d="M10.084,16.529c0,0-0.214,1.313-0.539,2.011c0.293-0.081,0.832-0.387,0.832-0.387l0.35,0.815
		c0,0,0.706-1.385-0.169-2.614"/>
</g>
</svg>
