<?xml version="1.0" encoding="utf-8"?>
<!-- Generator: Adobe Illustrator 16.0.0, SVG Export Plug-In . SVG Version: 6.00 Build 0)  -->
<!DOCTYPE svg PUBLIC "-//W3C//DTD SVG 1.1//EN" "http://www.w3.org/Graphics/SVG/1.1/DTD/svg11.dtd">
<svg version="1.1" id="Layer_1" xmlns="http://www.w3.org/2000/svg" xmlns:xlink="http://www.w3.org/1999/xlink" x="0px" y="0px"
	 width="20px" height="20px" viewBox="0 0 20 20" enable-background="new 0 0 20 20" xml:space="preserve">
<path fill="#1E1E1E" d="M19.991,18.762V1.153c0-0.626-0.601-1.145-1.229-1.145H1.156c-0.627,0-1.149,0.519-1.149,0.924v17.603
	c0,0.852,0.522,1.457,1.149,1.457h17.608C19.391,19.992,19.992,19.387,19.991,18.762L19.991,18.762z M16.363,1.745
	c0,0,0.771,0.562,0.437,1.051c0.039,0.029,0.08,0.055,0.114,0.091c0.127-0.058,0.63-0.222,1.158,0.455c0,0-0.602,0.778-1.137,0.466
	c-0.025,0.033-0.051,0.063-0.082,0.09c0.021,0.036,0.323,0.578-0.455,1.154c0,0-0.824-0.602-0.469-1.125
	c-0.039-0.029-0.074-0.056-0.106-0.092c-0.136,0.059-0.63,0.213-1.152-0.457c-0.001,0,0.603-0.786,1.14-0.464
	c0.035-0.042,0.076-0.077,0.119-0.11C15.877,2.697,15.705,2.233,16.363,1.745z M16.912,7.235c0.128-0.057,0.63-0.222,1.158,0.455
	c0,0-0.603,0.779-1.137,0.467c-0.025,0.032-0.051,0.063-0.082,0.089c0.021,0.036,0.323,0.578-0.455,1.154
	c0,0-0.824-0.601-0.469-1.125c-0.039-0.029-0.074-0.056-0.107-0.092c-0.133,0.059-0.629,0.213-1.15-0.457
	c0,0,0.604-0.785,1.139-0.464c0.035-0.042,0.076-0.077,0.121-0.11c-0.054-0.106-0.226-0.571,0.434-1.058
	c-0.002-0.001,0.771,0.56,0.436,1.05C16.837,7.174,16.878,7.199,16.912,7.235z M16.913,11.62c0.127-0.06,0.63-0.222,1.157,0.456
	c0,0-0.602,0.775-1.135,0.464c-0.026,0.032-0.052,0.065-0.084,0.09c0.021,0.035,0.324,0.577-0.453,1.154
	c0,0-0.825-0.601-0.469-1.124c-0.039-0.03-0.076-0.057-0.107-0.092c-0.135,0.058-0.631,0.211-1.152-0.457
	c0,0,0.604-0.786,1.141-0.465c0.035-0.043,0.076-0.076,0.119-0.11c-0.053-0.106-0.225-0.571,0.434-1.058
	c0,0.001,0.771,0.562,0.436,1.049C16.838,11.557,16.879,11.584,16.913,11.62z M14.271,15.932c0,0-0.824-0.602-0.469-1.123
	c-0.039-0.031-0.074-0.059-0.107-0.093c-0.133,0.058-0.631,0.212-1.151-0.458c0,0,0.604-0.785,1.14-0.464
	c0.035-0.043,0.076-0.075,0.121-0.112c-0.054-0.105-0.227-0.568,0.432-1.056c0,0,0.772,0.56,0.438,1.05
	c0.039,0.029,0.08,0.055,0.114,0.092c0.127-0.059,0.629-0.223,1.157,0.455c0,0-0.602,0.777-1.135,0.465
	c-0.026,0.033-0.052,0.064-0.084,0.09C14.748,14.813,15.051,15.355,14.271,15.932z M10.02,16.021c0,0-0.825-0.601-0.468-1.123
	c-0.039-0.03-0.075-0.059-0.108-0.092c-0.133,0.06-0.63,0.211-1.151-0.457c0,0,0.604-0.787,1.139-0.463
	c0.035-0.045,0.076-0.078,0.121-0.113c-0.053-0.105-0.226-0.57,0.433-1.057c0,0,0.771,0.563,0.437,1.049
	c0.039,0.029,0.08,0.057,0.113,0.092c0.128-0.059,0.63-0.221,1.157,0.457c0,0-0.601,0.777-1.135,0.465
	c-0.025,0.031-0.052,0.063-0.083,0.089C10.496,14.906,10.799,15.447,10.02,16.021z M5.769,16.021c0,0-0.825-0.601-0.468-1.123
	c-0.039-0.03-0.075-0.059-0.108-0.092c-0.133,0.06-0.629,0.211-1.151-0.457c0,0,0.604-0.787,1.139-0.463
	c0.036-0.045,0.076-0.078,0.121-0.113c-0.053-0.105-0.226-0.57,0.433-1.057c0,0,0.772,0.563,0.437,1.049
	c0.039,0.029,0.08,0.057,0.114,0.092c0.127-0.059,0.629-0.221,1.159,0.457c0,0-0.602,0.777-1.136,0.465
	c-0.027,0.031-0.052,0.063-0.083,0.089C6.245,14.906,6.548,15.447,5.769,16.021z M3.068,12.66c-0.135,0.061-0.63,0.211-1.153-0.458
	c0,0,0.604-0.784,1.14-0.464c0.036-0.043,0.076-0.076,0.12-0.109c-0.053-0.107-0.225-0.57,0.434-1.059c0,0,0.771,0.561,0.436,1.052
	c0.04,0.026,0.08,0.053,0.113,0.09c0.129-0.058,0.631-0.222,1.159,0.456c0,0-0.601,0.777-1.135,0.466
	c-0.026,0.031-0.052,0.063-0.083,0.091c0.021,0.034,0.325,0.576-0.454,1.152c0,0-0.826-0.6-0.469-1.126
	C3.137,12.725,3.1,12.695,3.068,12.66z M3.068,8.275c-0.134,0.059-0.63,0.213-1.153-0.458c0,0,0.604-0.785,1.14-0.463
	c0.036-0.043,0.076-0.078,0.12-0.111C3.122,7.137,2.95,6.672,3.608,6.185c0,0,0.771,0.561,0.436,1.051
	c0.04,0.029,0.08,0.055,0.113,0.09c0.129-0.058,0.631-0.221,1.159,0.456c0,0-0.601,0.779-1.135,0.466
	c-0.026,0.033-0.052,0.063-0.083,0.09c0.02,0.035,0.324,0.576-0.455,1.154c0.001,0-0.825-0.601-0.467-1.125
	C3.137,8.338,3.1,8.31,3.068,8.275z M5.733,3.983c0,0,0.772,0.561,0.437,1.051c0.039,0.028,0.08,0.055,0.114,0.09
	c0.127-0.058,0.629-0.221,1.158,0.457c0,0-0.602,0.778-1.135,0.466C6.28,6.08,6.255,6.109,6.223,6.137
	c0.021,0.035,0.325,0.576-0.454,1.154c0,0-0.825-0.602-0.468-1.126C5.262,6.137,5.226,6.108,5.192,6.073
	C5.06,6.132,4.563,6.286,4.041,5.616c0,0,0.604-0.785,1.139-0.463c0.036-0.042,0.076-0.077,0.121-0.11
	C5.248,4.934,5.075,4.47,5.733,3.983z M9.985,3.983c0,0,0.771,0.561,0.437,1.051c0.038,0.028,0.079,0.055,0.112,0.09
	c0.128-0.058,0.63-0.221,1.157,0.457c0,0-0.601,0.778-1.135,0.466c-0.025,0.033-0.052,0.063-0.083,0.09
	c0.021,0.035,0.324,0.576-0.454,1.154c0,0-0.825-0.602-0.468-1.126C9.513,6.137,9.478,6.108,9.444,6.073
	c-0.133,0.059-0.63,0.212-1.151-0.458c0,0,0.603-0.785,1.139-0.463c0.035-0.042,0.076-0.077,0.121-0.11
	C9.499,4.934,9.327,4.47,9.985,3.983z M14.236,3.891c0,0,0.771,0.561,0.437,1.051c0.039,0.029,0.08,0.055,0.114,0.091
	c0.127-0.058,0.629-0.222,1.158,0.455c0,0-0.603,0.779-1.137,0.466c-0.025,0.032-0.051,0.063-0.082,0.09
	c0.021,0.036,0.323,0.577-0.455,1.153c0,0-0.824-0.601-0.469-1.125c-0.039-0.028-0.074-0.056-0.107-0.092
	c-0.133,0.06-0.631,0.213-1.151-0.457c0,0,0.604-0.786,1.14-0.464c0.035-0.042,0.076-0.077,0.121-0.11
	C13.751,4.842,13.578,4.379,14.236,3.891z M14.789,9.418c0.127-0.058,0.629-0.222,1.158,0.456c0,0-0.602,0.778-1.137,0.465
	c-0.025,0.034-0.051,0.063-0.082,0.09c0.021,0.034,0.323,0.578-0.455,1.154c-0.002,0.001-0.826-0.601-0.469-1.126
	c-0.039-0.027-0.074-0.054-0.109-0.091c-0.133,0.058-0.629,0.212-1.15-0.458c0,0,0.604-0.786,1.141-0.463
	c0.035-0.042,0.076-0.077,0.119-0.11c-0.053-0.107-0.226-0.571,0.434-1.059c0,0,0.771,0.562,0.437,1.051
	C14.714,9.356,14.755,9.382,14.789,9.418z M12.546,7.143c0.041,0.03,0.08,0.055,0.113,0.091c0.13-0.057,0.632-0.222,1.159,0.455
	c0,0-0.601,0.779-1.135,0.467c-0.025,0.032-0.054,0.063-0.082,0.089c0.02,0.036,0.323,0.578-0.455,1.154
	c0,0-0.826-0.601-0.469-1.125c-0.039-0.029-0.076-0.056-0.107-0.092c-0.135,0.059-0.631,0.213-1.152-0.457
	c0,0,0.604-0.785,1.141-0.464c0.035-0.042,0.074-0.077,0.118-0.11c-0.052-0.106-0.224-0.571,0.435-1.058
	C12.111,6.093,12.882,6.654,12.546,7.143z M10.02,11.674c0.001,0.001-0.824-0.6-0.467-1.125c-0.039-0.027-0.075-0.054-0.108-0.092
	c-0.133,0.061-0.63,0.212-1.151-0.456c0,0,0.603-0.786,1.139-0.464c0.035-0.042,0.076-0.077,0.121-0.11
	C9.5,9.319,9.327,8.855,9.985,8.368c0,0,0.771,0.561,0.437,1.051c0.039,0.029,0.08,0.055,0.113,0.09
	c0.128-0.058,0.63-0.221,1.158,0.456c0,0-0.603,0.777-1.135,0.466c-0.027,0.032-0.053,0.063-0.084,0.09
	C10.495,10.555,10.799,11.098,10.02,11.674z M8.296,7.236c0.039,0.029,0.08,0.055,0.114,0.09c0.128-0.058,0.63-0.221,1.158,0.456
	c0,0-0.601,0.779-1.135,0.466C8.407,8.281,8.382,8.311,8.35,8.338c0.021,0.035,0.325,0.576-0.454,1.154c0,0-0.825-0.601-0.468-1.125
	C7.388,8.338,7.352,8.31,7.319,8.275c-0.134,0.059-0.63,0.213-1.152-0.458c0,0,0.604-0.785,1.14-0.463
	c0.036-0.043,0.076-0.078,0.121-0.111C7.374,7.137,7.202,6.672,7.86,6.185C7.86,6.185,8.631,6.746,8.296,7.236z M5.771,11.674
	c0,0-0.825-0.602-0.468-1.126c-0.041-0.026-0.076-0.053-0.11-0.091c-0.133,0.061-0.63,0.212-1.151-0.456
	c0,0,0.604-0.786,1.139-0.464c0.035-0.042,0.076-0.077,0.121-0.11C5.248,9.319,5.076,8.855,5.734,8.368c0,0,0.772,0.561,0.437,1.051
	c0.039,0.029,0.08,0.055,0.114,0.09c0.127-0.058,0.629-0.221,1.158,0.456c0,0-0.602,0.777-1.135,0.466
	c-0.027,0.032-0.052,0.063-0.083,0.09C6.246,10.555,6.55,11.098,5.771,11.674z M7.428,12.751c-0.039-0.026-0.075-0.056-0.108-0.091
	c-0.134,0.061-0.63,0.211-1.152-0.458c0,0,0.604-0.784,1.14-0.464c0.036-0.043,0.076-0.076,0.121-0.109
	c-0.053-0.107-0.225-0.57,0.433-1.059c0,0,0.771,0.561,0.436,1.052c0.039,0.026,0.08,0.053,0.114,0.09
	c0.127-0.058,0.63-0.222,1.158,0.456c0,0-0.601,0.777-1.135,0.466c-0.026,0.031-0.051,0.063-0.083,0.091
	c0.019,0.034,0.322,0.576-0.456,1.152C7.896,13.877,7.071,13.277,7.428,12.751z M11.68,12.66c-0.039-0.03-0.076-0.057-0.109-0.092
	c-0.135,0.058-0.631,0.211-1.151-0.457c0,0,0.604-0.786,1.14-0.465c0.035-0.043,0.075-0.076,0.119-0.11
	c-0.053-0.106-0.225-0.571,0.434-1.058c0,0,0.771,0.562,0.437,1.049c0.041,0.029,0.08,0.057,0.113,0.093
	c0.13-0.06,0.632-0.222,1.159,0.456c0,0-0.6,0.775-1.135,0.464c-0.025,0.032-0.054,0.065-0.084,0.09
	c0.02,0.035,0.325,0.577-0.455,1.154C12.146,13.784,11.32,13.184,11.68,12.66z M15.847,1.258c-0.189,0.201-0.625,0.585-1.03,0.347
	c-0.026,0.033-0.051,0.063-0.084,0.09c0.021,0.035,0.324,0.577-0.453,1.154c0,0-0.825-0.602-0.469-1.125
	c-0.039-0.029-0.074-0.057-0.108-0.092c-0.127,0.055-0.583,0.189-1.075-0.374H15.847z M12.111,1.745c0,0,0.771,0.562,0.437,1.051
	c0.041,0.029,0.08,0.055,0.113,0.091c0.13-0.058,0.632-0.222,1.159,0.455c0,0-0.6,0.778-1.135,0.466
	c-0.025,0.033-0.054,0.063-0.084,0.09c0.021,0.036,0.325,0.578-0.453,1.154c0,0-0.826-0.602-0.469-1.125
	c-0.039-0.029-0.076-0.056-0.107-0.092c-0.135,0.059-0.631,0.213-1.153-0.457c-0.001,0,0.603-0.786,1.14-0.464
	c0.035-0.042,0.075-0.077,0.119-0.11C11.625,2.697,11.453,2.233,12.111,1.745z M8.302,1.258h3.377
	c-0.107,0.129-0.636,0.718-1.112,0.438c-0.027,0.033-0.053,0.063-0.084,0.09c0.021,0.035,0.325,0.577-0.454,1.154
	c0,0-0.825-0.601-0.468-1.125C9.514,1.788,9.478,1.76,9.444,1.726c-0.133,0.058-0.63,0.211-1.151-0.458
	C8.293,1.268,8.299,1.26,8.302,1.258z M7.86,1.837c0,0,0.771,0.561,0.436,1.051c0.039,0.028,0.08,0.055,0.114,0.09
	C8.537,2.92,9.04,2.756,9.568,3.434c0,0-0.601,0.778-1.135,0.465C8.407,3.933,8.382,3.963,8.35,3.99
	c0.021,0.035,0.325,0.577-0.454,1.154c0,0-0.825-0.601-0.468-1.125C7.388,3.99,7.352,3.962,7.319,3.927
	c-0.134,0.059-0.63,0.212-1.152-0.458c0,0,0.604-0.785,1.14-0.463c0.036-0.043,0.076-0.077,0.121-0.11
	C7.374,2.788,7.202,2.324,7.86,1.837z M4.051,1.258h3.372C7.325,1.376,6.791,1.982,6.308,1.699C6.28,1.73,6.255,1.761,6.224,1.788
	C6.245,1.823,6.548,2.365,5.77,2.942c0,0-0.825-0.601-0.468-1.125C5.262,1.788,5.227,1.76,5.193,1.726
	C5.06,1.784,4.563,1.937,4.042,1.268C4.042,1.268,4.048,1.26,4.051,1.258z M3.609,1.837c0,0,0.771,0.561,0.436,1.051
	c0.04,0.028,0.08,0.055,0.113,0.09C4.287,2.92,4.789,2.756,5.317,3.434c0,0-0.601,0.778-1.135,0.465
	C4.156,3.933,4.13,3.963,4.099,3.99C4.12,4.025,4.424,4.567,3.645,5.144c0,0-0.826-0.602-0.469-1.126
	C3.137,3.99,3.101,3.962,3.068,3.927c-0.135,0.059-0.63,0.212-1.153-0.458c0,0,0.604-0.786,1.14-0.463
	c0.036-0.043,0.076-0.077,0.12-0.11C3.123,2.788,2.951,2.324,3.609,1.837z M1.437,2.061c0-0.352,0.447-0.803,0.985-0.803h0.631
	c-0.189,0.2-0.626,0.586-1.032,0.348C1.995,1.639,1.97,1.669,1.938,1.696c0.02,0.035,0.324,0.576-0.455,1.154
	c0,0-0.02-0.015-0.046-0.037V2.061z M1.437,4.012c0.004-0.003,0.007-0.006,0.011-0.01c0,0,0.771,0.562,0.436,1.051
	c0.039,0.029,0.08,0.055,0.114,0.091C2.125,5.086,2.627,4.922,3.156,5.6c0,0-0.601,0.778-1.135,0.466
	C1.994,6.099,1.969,6.128,1.938,6.155c0.02,0.035,0.324,0.577-0.455,1.154c0,0-0.019-0.015-0.046-0.037V4.012z M1.437,8.397
	c0.004-0.003,0.007-0.006,0.011-0.01c0,0,0.771,0.561,0.436,1.051c0.039,0.029,0.08,0.056,0.114,0.091
	c0.128-0.058,0.63-0.222,1.158,0.456c0,0-0.601,0.779-1.135,0.465c-0.026,0.033-0.051,0.063-0.083,0.089
	c0.021,0.035,0.324,0.579-0.455,1.154c0,0-0.019-0.015-0.046-0.036V8.397z M1.437,12.746c0.004-0.003,0.007-0.007,0.011-0.01
	c0,0,0.771,0.561,0.436,1.05c0.039,0.028,0.08,0.055,0.114,0.091c0.128-0.059,0.63-0.221,1.158,0.457c0,0-0.601,0.777-1.135,0.464
	c-0.026,0.031-0.051,0.063-0.083,0.091c0.021,0.036,0.324,0.576-0.455,1.152c0,0-0.019-0.015-0.046-0.036V12.746z M2.422,18.641
	c-0.538,0-0.985-0.527-0.985-1.268v-0.291c0.017,0.013,0.764,0.566,0.433,1.05c0.039,0.03,0.08,0.056,0.114,0.093
	c0.125-0.06,0.609-0.211,1.125,0.416H2.422z M3.644,18.225c0,0-0.826-0.603-0.468-1.125C3.137,17.07,3.1,17.043,3.068,17.01
	c-0.134,0.059-0.63,0.213-1.153-0.459c0,0,0.604-0.785,1.14-0.464c0.036-0.042,0.076-0.075,0.12-0.108
	c-0.053-0.109-0.225-0.572,0.434-1.06c0,0,0.771,0.56,0.436,1.052c0.04,0.026,0.08,0.055,0.113,0.09
	c0.129-0.06,0.631-0.223,1.159,0.455c-0.001,0-0.601,0.779-1.135,0.465c-0.026,0.035-0.052,0.063-0.083,0.09
	C4.119,17.107,4.423,17.648,3.644,18.225z M4.08,18.641c0.138-0.161,0.643-0.693,1.1-0.418c0.036-0.041,0.076-0.076,0.121-0.111
	c-0.053-0.105-0.226-0.569,0.433-1.057c0,0,0.772,0.561,0.437,1.053c0.039,0.026,0.08,0.054,0.114,0.088
	c0.126-0.057,0.622-0.215,1.147,0.445H4.08z M7.895,18.225c0,0-0.824-0.603-0.468-1.125c-0.039-0.029-0.074-0.058-0.108-0.09
	c-0.133,0.059-0.629,0.213-1.152-0.46c0,0,0.604-0.784,1.139-0.464c0.036-0.042,0.076-0.076,0.121-0.109
	c-0.053-0.108-0.225-0.57,0.433-1.059c0,0,0.771,0.561,0.437,1.051c0.039,0.027,0.08,0.055,0.113,0.092
	C8.538,16,9.04,15.837,9.568,16.514c-0.001,0.002-0.602,0.781-1.136,0.467c-0.026,0.035-0.051,0.063-0.083,0.09
	C8.37,17.107,8.674,17.648,7.895,18.225z M8.335,18.641c0.14-0.163,0.642-0.69,1.098-0.416c0.035-0.041,0.076-0.078,0.121-0.111
	c-0.053-0.106-0.226-0.57,0.433-1.059c0,0,0.771,0.563,0.437,1.053c0.038,0.027,0.079,0.055,0.112,0.09
	c0.127-0.059,0.623-0.217,1.146,0.443H8.335z M12.148,18.133c0,0-0.828-0.602-0.469-1.125c-0.039-0.027-0.076-0.056-0.109-0.093
	c-0.135,0.062-0.629,0.213-1.15-0.455c0,0,0.604-0.785,1.139-0.465c0.037-0.041,0.075-0.075,0.119-0.108
	c-0.052-0.109-0.224-0.572,0.436-1.062c0,0,0.771,0.562,0.435,1.053c0.041,0.028,0.08,0.056,0.113,0.091
	c0.13-0.059,0.632-0.223,1.159,0.455c-0.002,0-0.602,0.779-1.135,0.467c-0.026,0.03-0.055,0.063-0.084,0.09
	C12.622,17.016,12.926,17.559,12.148,18.133z M15.879,18.641h-3.292c-0.014-0.017-0.027-0.025-0.041-0.043
	c0,0,0.604-0.787,1.14-0.466c0.035-0.041,0.076-0.075,0.121-0.11c-0.054-0.105-0.227-0.571,0.432-1.059c0,0,0.773,0.563,0.438,1.053
	c0.039,0.027,0.08,0.055,0.114,0.092c0.127-0.059,0.629-0.224,1.158,0.455C15.948,18.563,15.919,18.598,15.879,18.641z
	 M16.398,18.133c0,0-0.825-0.602-0.469-1.125c-0.039-0.027-0.074-0.056-0.107-0.093c-0.135,0.062-0.631,0.213-1.151-0.455
	c0,0,0.603-0.785,1.14-0.465c0.035-0.041,0.076-0.075,0.119-0.108c-0.053-0.109-0.225-0.572,0.434-1.062
	c0,0,0.771,0.562,0.438,1.053c0.038,0.028,0.079,0.056,0.113,0.091c0.128-0.059,0.63-0.223,1.158,0.455
	c-0.002,0-0.604,0.779-1.137,0.467c-0.026,0.03-0.052,0.063-0.084,0.09C16.873,17.016,17.176,17.559,16.398,18.133z M18.563,17.57
	c0,0.543-0.515,1.07-1.054,1.07h-0.645c0.083-0.102,0.628-0.74,1.122-0.443c0.035-0.043,0.076-0.078,0.121-0.11
	c-0.053-0.108-0.226-0.571,0.434-1.06c0,0,0.009,0.007,0.021,0.017V17.57z M18.563,16.005c-0.118-0.092-0.77-0.628-0.444-1.106
	c-0.039-0.028-0.074-0.059-0.108-0.092c-0.133,0.06-0.63,0.211-1.15-0.457c0,0,0.604-0.787,1.14-0.463
	c0.035-0.045,0.076-0.078,0.12-0.113c-0.053-0.105-0.227-0.57,0.433-1.057c0,0,0.008,0.007,0.011,0.008V16.005z M18.563,11.653
	c-0.125-0.098-0.765-0.631-0.442-1.105c-0.039-0.026-0.074-0.054-0.108-0.091c-0.133,0.061-0.63,0.213-1.15-0.457
	c0,0,0.604-0.786,1.14-0.464c0.035-0.042,0.076-0.077,0.12-0.11c-0.053-0.108-0.227-0.572,0.434-1.059c0,0,0.007,0.005,0.008,0.006
	V11.653z M18.563,7.175c-0.132-0.104-0.761-0.632-0.44-1.103c-0.039-0.028-0.074-0.056-0.108-0.092
	c-0.133,0.06-0.63,0.213-1.15-0.457c0,0,0.604-0.786,1.14-0.464c0.035-0.042,0.076-0.077,0.12-0.11
	c-0.053-0.107-0.227-0.571,0.434-1.059c0,0,0.005,0.004,0.006,0.004V7.175z M18.563,2.77c-0.139-0.109-0.756-0.635-0.438-1.102
	c-0.039-0.029-0.074-0.057-0.108-0.091c-0.121,0.053-0.548,0.173-1.02-0.319h0.511c0.54,0,1.056,0.451,1.056,0.997V2.77z"/>
</svg>
