<?xml version="1.0" encoding="utf-8"?>
<!-- Generator: Adobe Illustrator 16.0.0, SVG Export Plug-In . SVG Version: 6.00 Build 0)  -->
<!DOCTYPE svg PUBLIC "-//W3C//DTD SVG 1.1//EN" "http://www.w3.org/Graphics/SVG/1.1/DTD/svg11.dtd">
<svg version="1.1" id="Layer_1" xmlns="http://www.w3.org/2000/svg" xmlns:xlink="http://www.w3.org/1999/xlink" x="0px" y="0px"
	 width="20px" height="20px" viewBox="0 0 20 20" enable-background="new 0 0 20 20" xml:space="preserve">
<g id="Layer_1_2_">
	<g id="Layer_1_copy" display="none">
	</g>
	
		<image display="none" overflow="visible" enable-background="new    " width="792" height="641" xlink:href="C:\DownloadsTemp\open-book-cover-clip-art-book_open-4.jpg"  transform="matrix(0.2317 0 0 0.2317 50.334 -71.9243)">
	</image>
</g>
<path fill="#1E1E1E" d="M19.992,1.153c0-0.626-0.6-1.145-1.229-1.145H1.157c-0.627,0-1.149,0.519-1.149,0.924v17.603
	c0,0.852,0.522,1.457,1.149,1.457h17.606c0.627,0,1.229-0.605,1.229-1.23L19.992,1.153z M14.973,13.388
	c-0.145,1.508-0.501,2.696-1.627,3.259c-0.708,0.382-1.229,0.337-1.938,0.428l-0.022,2.03H8.615l0.022-1.994
	c-1.38-0.072-2.435-0.254-3.179-0.399l-0.309-3.068c0.745,0.146,2.579,0.545,4.104,0.545c1.326,0,2.015-0.291,2.233-0.872
	c0.091-0.254,0.091-0.49-0.018-0.727c-0.272-0.563-1.107-0.799-2.197-1.107c-1.126-0.345-2.561-0.744-3.45-1.634
	C4.95,8.939,4.95,7.777,5.041,6.979c0.2-1.507,0.781-2.452,1.925-3.087c0.581-0.291,0.974-0.454,1.609-0.527V0.896h2.833v2.378
	c1.253,0.019,1.912,0.164,2.711,0.309l0.255,2.959c-0.581-0.091-2.125-0.381-3.486-0.381c-1.398,0-2.161,0.309-2.397,0.872
	C8.4,7.305,8.418,7.541,8.509,7.759c0.309,0.581,1.198,0.872,2.379,1.216c1.217,0.381,2.561,0.763,3.322,1.562
	C15.082,11.409,15.027,12.607,14.973,13.388z"/>
</svg>
