<?xml version="1.0" encoding="utf-8"?>
<!-- Generator: Adobe Illustrator 15.1.0, SVG Export Plug-In . SVG Version: 6.00 Build 0)  -->
<!DOCTYPE svg PUBLIC "-//W3C//DTD SVG 1.1//EN" "http://www.w3.org/Graphics/SVG/1.1/DTD/svg11.dtd">
<svg version="1.1" xmlns="http://www.w3.org/2000/svg" xmlns:xlink="http://www.w3.org/1999/xlink" x="0px" y="0px" width="20px"
	 height="20px" viewBox="0 0 20 20" enable-background="new 0 0 20 20" xml:space="preserve">
<g id="Layer_1">
</g>
<g id="Layer_2_1_">
	<path fill="#1E1E1E" d="M18.77,0H1.164C0.537,0,0.015,0.519,0.015,0.924v17.604c0,0.851,0.522,1.457,1.149,1.457h17.607
		c0.627,0,1.229-0.606,1.229-1.231V1.145C20,0.519,19.398,0,18.77,0z M16.465,15.474c-0.12,1.242-0.644,2.081-1.572,2.545
		c-0.583,0.314-1.212,0.419-1.796,0.494v1.467H11.42v-1.438c-1.137-0.06-2.185-0.209-2.799-0.329l-0.254-2.529
		c0.614,0.119,2.125,0.448,3.383,0.448c1.093,0,1.661-0.239,1.841-0.718c0.075-0.21,0.075-0.404-0.015-0.599
		c-0.225-0.465-0.913-0.659-1.812-0.913c-0.928-0.285-2.111-0.614-2.844-1.348c-0.718-0.748-0.718-1.706-0.644-2.365
		C8.441,8.947,8.92,8.169,9.863,7.645c0.479-0.24,1.033-0.375,1.557-0.434V5.684h1.677v1.452c1.033,0.015,2.006,0.134,2.665,0.254
		l0.209,2.44c-0.479-0.075-1.751-0.314-2.874-0.314c-1.152,0-1.781,0.254-1.976,0.718c-0.075,0.225-0.061,0.419,0.015,0.599
		c0.255,0.479,0.988,0.719,1.961,1.003c1.003,0.314,2.11,0.629,2.739,1.288C16.555,13.842,16.51,14.83,16.465,15.474z"/>
</g>
</svg>
